<?xml version="1.0" standalone="no"?>
<!DOCTYPE svg PUBLIC "-//W3C//DTD SVG 20010904//EN"
 "http://www.w3.org/TR/2001/REC-SVG-20010904/DTD/svg10.dtd">
<svg version="1.0" xmlns="http://www.w3.org/2000/svg"
 width="842.000000pt" height="842.000000pt" viewBox="0 0 842.000000 842.000000"
 preserveAspectRatio="xMidYMid meet">
<metadata>
Created by potrace 1.14, written by Peter Selinger 2001-2017
</metadata>
<g transform="translate(0.000000,842.000000) scale(0.100000,-0.100000)"
fill="#000000" stroke="none">
<path d="M2211 6494 c-29 -8 -66 -23 -81 -34 -15 -11 -31 -20 -34 -20 -14 0
-496 -490 -514 -522 -10 -18 -22 -46 -26 -62 -4 -17 -7 -807 -7 -1758 -1
-1575 1 -1732 16 -1784 9 -31 24 -69 32 -83 9 -14 136 -146 282 -294 215 -215
272 -268 299 -273 28 -6 171 -7 222 -3 8 1 20 0 25 -1 6 -1 26 -2 45 -1 l35 1
49 132 c47 131 66 182 165 451 28 75 51 138 51 140 0 1 -83 2 -184 3 l-185 0
-49 44 c-86 78 -78 -82 -76 1660 1 855 2 1559 3 1564 0 5 27 35 60 66 l59 58
248 1 c137 0 266 -2 287 -5 70 -11 71 -16 72 -366 1 -298 2 -309 22 -329 11
-12 37 -22 58 -24 38 -4 40 -2 342 300 l303 303 1 74 c3 485 1 522 -24 579
-42 95 -107 155 -200 183 -66 20 -1218 20 -1296 0z"/>
<path d="M5144 6501 c-2 -3 -70 -5 -150 -7 -100 -1 -154 -6 -171 -15 -27 -14
-47 -53 -90 -174 -37 -103 -140 -385 -153 -420 -6 -16 -11 -31 -11 -32 0 -2
-11 -33 -25 -70 -14 -38 -80 -216 -145 -398 -66 -181 -124 -339 -129 -350 -5
-11 -20 -54 -35 -95 -15 -41 -33 -91 -40 -110 -28 -73 -47 -127 -62 -170 -9
-25 -20 -56 -26 -70 -5 -14 -11 -29 -13 -35 -4 -18 -46 -129 -60 -162 -8 -17
-14 -37 -14 -45 0 -8 -4 -18 -8 -24 -5 -5 -15 -29 -22 -54 -7 -25 -16 -49 -19
-55 -3 -5 -7 -14 -8 -20 -3 -14 -142 -395 -153 -420 -10 -24 -51 -136 -55
-150 -1 -5 -5 -17 -8 -25 -4 -8 -34 -89 -67 -180 -33 -91 -64 -172 -69 -180
-5 -9 -12 -30 -16 -49 -4 -18 -13 -44 -21 -59 -8 -15 -14 -33 -14 -40 0 -7 -4
-20 -9 -30 -5 -9 -17 -39 -26 -67 -9 -27 -21 -59 -26 -70 -8 -19 -67 -179 -73
-200 -2 -5 -8 -21 -13 -35 -6 -14 -23 -61 -38 -105 -16 -44 -33 -91 -38 -105
-6 -14 -11 -29 -13 -35 -1 -5 -12 -35 -24 -65 -30 -76 -90 -242 -94 -260 -4
-16 -18 -51 -38 -97 -6 -16 -12 -30 -13 -33 0 -3 -9 -28 -18 -55 -30 -89 -26
-130 21 -192 48 -65 71 -72 258 -79 213 -7 198 -7 273 -1 81 8 145 34 166 69
13 23 59 137 69 173 2 6 9 24 15 40 7 17 19 48 26 70 7 22 38 108 69 190 31
83 64 170 72 195 8 25 19 54 24 65 4 11 17 45 28 75 11 30 24 64 28 75 4 11 8
22 9 25 1 3 4 12 8 20 31 81 57 158 57 168 0 6 4 12 8 12 5 0 9 6 9 13 0 6 19
62 41 122 22 61 70 191 106 290 37 99 70 189 75 200 5 11 23 58 39 105 17 47
36 99 43 115 6 17 13 35 15 42 2 13 90 252 109 298 6 17 17 44 23 60 5 17 14
39 18 50 4 11 8 22 8 25 1 3 13 37 28 75 14 39 45 122 69 185 23 63 46 126 52
140 6 14 11 31 13 38 1 7 11 36 23 65 23 60 34 90 35 97 1 3 4 10 7 15 4 6 14
35 24 65 10 30 20 60 24 65 3 6 6 15 7 20 1 6 8 24 15 40 6 17 13 35 15 40 1
6 37 102 79 215 42 113 87 234 100 270 21 59 59 164 130 355 14 39 28 77 32
85 3 8 7 20 8 25 2 6 24 66 50 135 72 193 78 212 79 261 2 108 -76 147 -307
152 -49 1 -91 0 -93 -2z"/>
<path d="M6229 6489 c-78 -35 -74 12 -75 -854 -1 -423 -2 -781 -3 -795 -1 -14
-11 -38 -23 -54 -13 -15 -247 -251 -520 -524 -452 -452 -499 -502 -519 -552
-11 -30 -25 -64 -29 -75 -5 -11 -32 -85 -61 -165 -28 -80 -67 -184 -85 -232
-19 -49 -34 -90 -34 -92 0 -3 -5 -17 -12 -33 -6 -15 -12 -35 -14 -43 -2 -8 -7
-23 -13 -35 -6 -11 -39 -101 -75 -200 l-65 -180 2 -455 c2 -438 3 -456 22
-482 42 -58 65 -62 347 -61 244 1 258 2 291 22 70 43 67 9 67 806 0 618 2 721
15 749 8 17 126 142 263 278 268 267 278 274 356 248 34 -11 85 -59 87 -83 1
-7 2 -439 4 -962 1 -641 5 -958 12 -975 17 -40 56 -69 104 -77 24 -5 148 -8
276 -7 260 1 279 6 318 76 20 35 20 52 18 2344 -1 1270 -3 2316 -5 2325 -7 30
-38 69 -71 86 -28 14 -67 17 -286 18 -219 0 -259 -2 -292 -16z"/>
</g>
</svg>
